<?xml version="1.0" encoding="UTF-8" standalone="no"?>
<!-- Created with Inkscape (http://www.inkscape.org/) -->

<svg
   xmlns:dc="http://purl.org/dc/elements/1.1/"
   xmlns:cc="http://creativecommons.org/ns#"
   xmlns:rdf="http://www.w3.org/1999/02/22-rdf-syntax-ns#"
   xmlns:svg="http://www.w3.org/2000/svg"
   xmlns="http://www.w3.org/2000/svg"
   xmlns:sodipodi="http://sodipodi.sourceforge.net/DTD/sodipodi-0.dtd"
   xmlns:inkscape="http://www.inkscape.org/namespaces/inkscape"
   width="744.09448819"
   height="1052.3622047"
   id="svg2"
   version="1.1"
   inkscape:version="0.48.5 r10040"
   sodipodi:docname="Monospaced-Bold.svg">
  <defs
     id="defs4" />
  <sodipodi:namedview
     id="base"
     pagecolor="#ffffff"
     bordercolor="#666666"
     borderopacity="1.0"
     inkscape:pageopacity="0.0"
     inkscape:pageshadow="2"
     inkscape:zoom="2.7445466"
     inkscape:cx="224.14925"
     inkscape:cy="791.7922"
     inkscape:document-units="px"
     inkscape:current-layer="layer1"
     showgrid="false"
     inkscape:window-width="1280"
     inkscape:window-height="751"
     inkscape:window-x="0"
     inkscape:window-y="0"
     inkscape:window-maximized="1" />
  <metadata
     id="metadata7">
    <rdf:RDF>
      <cc:Work
         rdf:about="">
        <dc:format>image/svg+xml</dc:format>
        <dc:type
           rdf:resource="http://purl.org/dc/dcmitype/StillImage" />
        <dc:title />
      </cc:Work>
    </rdf:RDF>
  </metadata>
  <g
     inkscape:label="Layer 1"
     inkscape:groupmode="layer"
     id="layer1">
    <path
       style="font-size:100px;font-style:normal;font-variant:normal;font-weight:bold;font-stretch:normal;line-height:125%;letter-spacing:0px;word-spacing:0px;fill:#000000;fill-opacity:1;stroke:none;font-family:Monospace;-inkscape-font-specification:Sans Bold"
       d="M 45 208.03125 L 39.21875 229.40625 L 51.90625 229.40625 L 53.78125 221.21875 L 60.625 251.0625 L 47 251.0625 L 47.78125 247.625 L 34.3125 247.625 L 25.3125 280.9375 L 39.71875 280.9375 L 44.125 262.90625 L 63.40625 262.90625 L 67.90625 280.9375 L 82.3125 280.9375 L 62.625 208.03125 L 45 208.03125 z "
       id="A0"
       inkscape:label="#path2990" />
    <path
       style="font-size:100px;font-style:normal;font-variant:normal;font-weight:bold;font-stretch:normal;line-height:125%;letter-spacing:0px;word-spacing:0px;fill:#000000;fill-opacity:1;stroke:none;font-family:Monospace;-inkscape-font-specification:Sans Bold"
       d="M 100.53125 207.9375 L 100.53125 233.5625 L 114.46875 233.5625 L 114.46875 219.40625 L 124.03125 219.40625 L 131.75 221.46875 L 134.125 227.96875 L 131.78125 234.40625 L 124.03125 236.34375 L 120.46875 236.34375 L 120.46875 247.84375 L 124.03125 247.84375 L 133.5625 250.40625 L 136.4375 258.90625 L 133.65625 267.0625 L 124.03125 269.40625 L 114.46875 269.40625 L 114.46875 251.75 L 100.53125 251.75 L 100.53125 280.9375 L 124.03125 280.9375 L 144.6875 276.1875 L 151.03125 260.90625 L 146.78125 247.53125 L 134.25 241.90625 L 144.84375 237.34375 L 148.4375 226.34375 L 142.28125 212.5625 L 124.03125 207.9375 L 100.53125 207.9375 z "
       id="B0"
       inkscape:label="#path2992" />
    <path
       inkscape:connector-curvature="0"
       id="C1"
       style="font-size:100px;font-style:normal;font-variant:normal;font-weight:bold;font-stretch:normal;line-height:125%;letter-spacing:0px;word-spacing:0px;fill:#000000;fill-opacity:1;stroke:none;font-family:Monospace;-inkscape-font-specification:Sans Bold"
       d="m 207.38142,278.83401 -7.17774,2.63672 -7.91015,0.87891 -22.50977,-9.7168 -7.76367,-28.07617 7.76367,-28.125 22.50977,-9.7168 7.95898,0.87891 7.12891,2.63672 0,16.01562 -7.22657,-4.98046 -7.17773,-1.61133 -11.96289,6.29883 -4.00391,18.60351 4.00391,18.60352 11.96289,6.25 7.17773,-1.5625 7.22657,-5.0293 0,16.01562"
       sodipodi:nodetypes="ccccccccccccccccccc"
       inkscape:label="#path2994" />
    <path
       style="font-size:100px;font-style:normal;font-variant:normal;font-weight:bold;font-stretch:normal;line-height:125%;letter-spacing:0px;word-spacing:0px;fill:#000000;fill-opacity:1;stroke:none;font-family:Monospace;-inkscape-font-specification:Sans Bold"
       d="M 221.4375 208.03125 L 221.4375 236.6875 L 235.84375 236.6875 L 235.84375 221.03125 L 239.75 221.03125 L 251.875 226.34375 L 255.46875 244.40625 L 251.875 262.625 L 239.75 267.9375 L 235.84375 267.9375 L 235.84375 256.4375 L 221.4375 256.4375 L 221.4375 280.9375 L 236.875 280.9375 L 262.59375 272.375 L 270.46875 244.40625 L 262.59375 216.59375 L 236.875 208.03125 L 221.4375 208.03125 z "
       id="D1"
       inkscape:label="#path2996" />
    <path
       inkscape:connector-curvature="0"
       id="E1"
       style="font-size:100px;font-style:normal;font-variant:normal;font-weight:bold;font-stretch:normal;line-height:125%;letter-spacing:0px;word-spacing:0px;fill:#000000;fill-opacity:1;stroke:none;font-family:Monospace;-inkscape-font-specification:Sans Bold"
       d="m 328.52399,280.93362 -45.41015,0 0,-72.90039 45.41015,0 0,12.69532 -31.00585,0 0,15.72265 28.07617,0 0,12.69531 -28.07617,0 0,19.0918 31.00585,0 0,12.69531"
       sodipodi:nodetypes="ccccccccccccc"
       inkscape:label="#path2998" />
    <path
       inkscape:connector-curvature="0"
       id="F1"
       style="font-size:100px;font-style:normal;font-variant:normal;font-weight:bold;font-stretch:normal;line-height:125%;letter-spacing:0px;word-spacing:0px;fill:#000000;fill-opacity:1;stroke:none;font-family:Monospace;-inkscape-font-specification:Sans Bold"
       d="m 389.36384,220.72855 -31.00586,0 0,15.72265 28.22266,0 0,12.69531 -28.22266,0 0,31.78711 -14.4043,0 0,-72.90039 45.41016,0 0,12.69532"
       sodipodi:nodetypes="ccccccccccc"
       inkscape:label="#path3000" />
    <path
       inkscape:connector-curvature="0"
       id="G1"
       style="font-size:100px;font-style:normal;font-variant:normal;font-weight:bold;font-stretch:normal;line-height:125%;letter-spacing:0px;word-spacing:0px;fill:#000000;fill-opacity:1;stroke:none;font-family:Monospace;-inkscape-font-specification:Sans Bold"
       d="m 437.80134,267.75003 0,-13.91602 -9.86328,0 0,-12.10937 22.46093,0 0,33.39844 -9.17968,5.41992 -10.69336,1.80664 -21.875,-9.81445 -7.71485,-27.97852 7.76368,-28.125 22.50976,-9.7168 8.64258,1.26954 7.95898,3.56445 0,15.9668 -6.98242,-5.85938 -8.59375,-2.00195 -12.25586,6.20117 -4.05273,18.70117 3.90625,18.50586 11.37695,6.34766 3.90625,-0.39063 2.68555,-1.26953"
       sodipodi:nodetypes="ccccccccccccccccccccccc"
       inkscape:label="#path3002" />
    <path
       inkscape:connector-curvature="0"
       id="H1"
       style="font-size:100px;font-style:normal;font-variant:normal;font-weight:bold;font-stretch:normal;line-height:125%;letter-spacing:0px;word-spacing:0px;fill:#000000;fill-opacity:1;stroke:none;font-family:Monospace;-inkscape-font-specification:Sans Bold"
       d="m 462.06892,208.03323 14.40429,0 0,27.78321 18.01758,0 0,-27.78321 14.4043,0 0,72.90039 -14.4043,0 0,-32.42187 -18.01758,0 0,32.42187 -14.40429,0 0,-72.90039"
       sodipodi:nodetypes="ccccccccccccc"
       inkscape:label="#path3004" />
    <path
       inkscape:connector-curvature="0"
       id="I1"
       style="font-size:100px;font-style:normal;font-variant:normal;font-weight:bold;font-stretch:normal;line-height:125%;letter-spacing:0px;word-spacing:0px;fill:#000000;fill-opacity:1;stroke:none;font-family:Monospace;-inkscape-font-specification:Sans Bold"
       d="m 523.93415,220.72855 0,-12.69532 43.4082,0 0,12.69532 -14.50195,0 0,47.50976 14.50195,0 0,12.69531 -43.4082,0 0,-12.69531 14.50195,0 0,-47.50976 -14.50195,0"
       sodipodi:nodetypes="ccccccccccccc"
       inkscape:label="#path3006" />
    <path
       inkscape:connector-curvature="0"
       id="J1"
       style="font-size:100px;font-style:normal;font-variant:normal;font-weight:bold;font-stretch:normal;line-height:125%;letter-spacing:0px;word-spacing:0px;fill:#000000;fill-opacity:1;stroke:none;font-family:Monospace;-inkscape-font-specification:Sans Bold"
       d="m 581.01423,277.32034 0,-16.69922 8.93555,6.54297 9.61914,2.2461 8.30078,-2.83203 2.63672,-9.03321 0,-36.8164 -17.62696,0 0,-12.69532 32.03125,0 0,49.51172 -5.61523,19.0918 -18.4082,5.71289 -9.7168,-1.26953 -10.15625,-3.75977"
       sodipodi:nodetypes="ccccccccccccccc"
       inkscape:label="#path3008" />
    <path
       inkscape:connector-curvature="0"
       id="K1"
       style="font-size:100px;font-style:normal;font-variant:normal;font-weight:bold;font-stretch:normal;line-height:125%;letter-spacing:0px;word-spacing:0px;fill:#000000;fill-opacity:1;stroke:none;font-family:Monospace;-inkscape-font-specification:Sans Bold"
       d="m 641.5611,208.03323 14.4043,0 0,28.8086 22.55859,-28.8086 16.3086,0 -22.99805,28.71094 23.82813,44.18945 -16.01563,0 -17.28515,-32.8125 -6.39649,8.10547 0,24.70703 -14.4043,0 0,-72.90039"
       sodipodi:nodetypes="ccccccccccccc"
       inkscape:label="#path3010" />
    <path
       inkscape:connector-curvature="0"
       id="L1"
       style="font-size:100px;font-style:normal;font-variant:normal;font-weight:bold;font-stretch:normal;line-height:125%;letter-spacing:0px;word-spacing:0px;fill:#000000;fill-opacity:1;stroke:none;font-family:Monospace;-inkscape-font-specification:Sans Bold"
       d="m 706.99079,280.93362 0,-72.90039 14.4043,0 0,60.20508 30.81055,0 0,12.69531 -45.21485,0"
       sodipodi:nodetypes="ccccccc"
       inkscape:label="#path3012" />
    <path
       inkscape:connector-curvature="0"
       id="M1"
       style="font-size:100px;font-style:normal;font-variant:normal;font-weight:bold;font-stretch:normal;line-height:125%;letter-spacing:0px;word-spacing:0px;fill:#000000;fill-opacity:1;stroke:none;font-family:Monospace;-inkscape-font-specification:Sans Bold"
       d="m 760.35993,208.03323 17.1875,0 8.69141,31.98243 8.64258,-31.98243 17.28515,0 0,72.90039 -12.40234,0 0,-58.39843 -7.71484,31.88476 -11.47461,0 -7.8125,-31.88476 0,58.39843 -12.40235,0 0,-72.90039"
       sodipodi:nodetypes="cccccccccccccc"
       inkscape:label="#path3014" />
    <path
       inkscape:connector-curvature="0"
       id="N1"
       style="font-size:100px;font-style:normal;font-variant:normal;font-weight:bold;font-stretch:normal;line-height:125%;letter-spacing:0px;word-spacing:0px;fill:#000000;fill-opacity:1;stroke:none;font-family:Monospace;-inkscape-font-specification:Sans Bold"
       d="m 822.12751,208.03323 15.47852,0 20.3125,52.97852 0,-52.97852 12.69531,0 0,72.90039 -15.38086,0 -20.41016,-52.97851 0,52.97851 -12.69531,0 0,-72.90039"
       sodipodi:nodetypes="ccccccccccc"
       inkscape:label="#path3016" />
    <path
       style="font-size:100px;font-style:normal;font-variant:normal;font-weight:bold;font-stretch:normal;line-height:125%;letter-spacing:0px;word-spacing:0px;fill:#000000;fill-opacity:1;stroke:none;font-family:Monospace;-inkscape-font-specification:Sans Bold"
       d="M 906.5625 206.71875 L 887.40625 216.28125 L 884.1875 230.46875 L 897.84375 230.46875 L 898.5 225.5625 L 906.5625 219.65625 L 914.65625 225.5625 L 917.1875 244.5625 L 914.65625 263.5625 L 906.5625 269.40625 L 898.5 263.5625 L 897.625 256.90625 L 883.78125 256.90625 L 887.40625 272.78125 L 906.5625 282.34375 L 925.6875 272.78125 L 932.1875 244.5625 L 925.6875 216.28125 L 906.5625 206.71875 z "
       id="O1"
       inkscape:label="#path3018" />
    <path
       style="font-size:100px;font-style:normal;font-variant:normal;font-weight:bold;font-stretch:normal;line-height:125%;letter-spacing:0px;word-spacing:0px;fill:#000000;fill-opacity:1;stroke:none;font-family:Monospace;-inkscape-font-specification:Sans Bold"
       d="M 944.53125 208.03125 L 944.53125 224.96875 L 958.9375 224.96875 L 958.9375 220.15625 L 964.84375 220.15625 L 974.75 222.53125 L 977.65625 230.84375 L 974.75 239.125 L 964.84375 241.53125 L 958.9375 241.53125 L 958.9375 236 L 944.53125 236 L 944.53125 280.9375 L 958.9375 280.9375 L 958.9375 253.625 L 964.3125 253.625 L 986 248.28125 L 992.625 230.84375 L 986 213.40625 L 964.3125 208.03125 L 944.53125 208.03125 z "
       id="P0"
       inkscape:label="#path3020" />
    <path
       style="font-size:100px;font-style:normal;font-variant:normal;font-weight:bold;font-stretch:normal;line-height:125%;letter-spacing:0px;word-spacing:0px;fill:#000000;fill-opacity:1;stroke:none;font-family:Monospace;-inkscape-font-specification:Sans Bold"
       d="M 1026.875 206.71875 L 1007.7188 216.28125 L 1003.6875 233.9375 L 1017.6875 233.9375 L 1018.8125 225.5625 L 1026.875 219.65625 L 1034.9688 225.5625 L 1037.5 244.5625 L 1034.9688 263.5625 L 1026.875 269.40625 L 1018.8125 263.5625 L 1017.9688 257.125 L 1004.1562 257.125 L 1007.7188 272.78125 L 1026.7812 282.34375 L 1027.6562 282.25 L 1028.8125 282.0625 L 1039.7188 294.65625 L 1049.5625 287.34375 L 1040.5 278.4375 L 1049.4375 266.09375 L 1052.5 244.5625 L 1046 216.28125 L 1026.875 206.71875 z "
       id="Q0"
       inkscape:label="#path3022" />
    <path
       style="font-size:100px;font-style:normal;font-variant:normal;font-weight:bold;font-stretch:normal;line-height:125%;letter-spacing:0px;word-spacing:0px;fill:#000000;fill-opacity:1;stroke:none;font-family:Monospace;-inkscape-font-specification:Sans Bold"
       d="M 1063.4375 208.03125 L 1063.4375 223.09375 L 1077.8438 223.09375 L 1077.8438 220.15625 L 1084.625 220.15625 L 1093.125 222.4375 L 1095.6562 230.0625 L 1093.0625 237.71875 L 1084.625 240.03125 L 1077.8438 240.03125 L 1077.8438 236.1875 L 1063.4375 236.1875 L 1063.4375 280.9375 L 1077.8438 280.9375 L 1077.8438 252.125 L 1082.4375 252.125 L 1091.5 260.375 L 1092.5312 262.53125 L 1101.3125 280.9375 L 1117.1562 280.9375 L 1103.9688 254.71875 L 1100.0625 248.5625 L 1096.3438 246.5 L 1106.9062 241.1875 L 1110.5625 229.21875 L 1104.4062 213 L 1084.25 208.03125 L 1063.4375 208.03125 z "
       id="R0"
       inkscape:label="#path3024" />
    <path
       inkscape:connector-curvature="0"
       id="S1"
       style="font-size:100px;font-style:normal;font-variant:normal;font-weight:bold;font-stretch:normal;line-height:125%;letter-spacing:0px;word-spacing:0px;fill:#000000;fill-opacity:1;stroke:none;font-family:Monospace;-inkscape-font-specification:Sans Bold"
       d="m 1142.0006,248.9512 -14.7461,-8.6914 -3.8575,-12.30469 6.3477,-15.57617 17.4316,-5.66407 10.0586,1.17188 9.961,3.36914 0,14.0625 -9.4239,-4.98047 -9.4726,-1.70898 -8.0078,2.09961 -2.7832,6.00586 2.0019,5.02929 8.4961,4.34571 6.2012,2.34375 12.9394,8.54492 4.1504,13.42773 -6.5429,16.50391 -19.6778,5.41992 -10.8886,-1.31836 -10.4981,-3.80859 0,-14.89258 11.1328,6.10351 10.6934,2.00196 8.2519,-2.39258 2.9297,-6.78711 -1.9531,-5.71289 -5.6641,-3.90625 -7.08,-2.68555"
       sodipodi:nodetypes="ccccccccccccccccccccccccccccc"
       inkscape:label="#path3026" />
    <path
       inkscape:connector-curvature="0"
       id="T1"
       style="font-size:100px;font-style:normal;font-variant:normal;font-weight:bold;font-stretch:normal;line-height:125%;letter-spacing:0px;word-spacing:0px;fill:#000000;fill-opacity:1;stroke:none;font-family:Monospace;-inkscape-font-specification:Sans Bold"
       d="m 1214.5592,280.93362 -14.4043,0 0,-60.30273 -18.5059,0 0,-12.59766 51.416,0 0,12.59766 -18.5058,0 0,60.30273"
       sodipodi:nodetypes="ccccccccc"
       inkscape:label="#path3028" />
    <path
       inkscape:connector-curvature="0"
       id="U1"
       style="font-size:100px;font-style:normal;font-variant:normal;font-weight:bold;font-stretch:normal;line-height:125%;letter-spacing:0px;word-spacing:0px;fill:#000000;fill-opacity:1;stroke:none;font-family:Monospace;-inkscape-font-specification:Sans Bold"
       d="m 1242.5865,254.02933 0,-45.9961 14.4043,0 0,49.60938 2.7832,8.59375 7.7148,3.07617 7.7149,-3.07617 2.7832,-8.59375 0,-49.60938 14.4043,0 0,45.9961 -5.9082,21.58203 -18.9942,6.73828 -18.9941,-6.73828 -5.9082,-21.58203"
       sodipodi:nodetypes="ccccccccccccccc"
       inkscape:label="#path3030" />
    <path
       inkscape:connector-curvature="0"
       id="V1"
       style="font-size:100px;font-style:normal;font-variant:normal;font-weight:bold;font-stretch:normal;line-height:125%;letter-spacing:0px;word-spacing:0px;fill:#000000;fill-opacity:1;stroke:none;font-family:Monospace;-inkscape-font-specification:Sans Bold"
       d="m 1327.6451,268.92191 12.8418,-60.88868 14.5019,0 -17.3339,72.90039 -19.9707,0 -17.334,-72.90039 14.5019,0 12.793,60.88868"
       sodipodi:nodetypes="cccccccc"
       inkscape:label="#path3032" />
    <path
       inkscape:connector-curvature="0"
       id="W1"
       style="font-size:100px;font-style:normal;font-variant:normal;font-weight:bold;font-stretch:normal;line-height:125%;letter-spacing:0px;word-spacing:0px;fill:#000000;fill-opacity:1;stroke:none;font-family:Monospace;-inkscape-font-specification:Sans Bold"
       d="m 1357.7232,208.03323 12.5977,0 5.2246,53.51563 6.2988,-34.61914 11.9629,0 7.3242,34.61914 4.1016,-53.51563 12.6953,0 -8.3984,72.90039 -13.4278,0 -8.3008,-38.28125 -7.7636,38.28125 -13.3301,0 -8.9844,-72.90039"
       sodipodi:nodetypes="cccccccccccccc"
       inkscape:label="#path3034" />
    <path
       inkscape:connector-curvature="0"
       id="X1"
       style="font-size:100px;font-style:normal;font-variant:normal;font-weight:bold;font-stretch:normal;line-height:125%;letter-spacing:0px;word-spacing:0px;fill:#000000;fill-opacity:1;stroke:none;font-family:Monospace;-inkscape-font-specification:Sans Bold"
       d="m 1476.7662,280.93362 -14.8926,0 -13.916,-24.12109 -13.8672,24.12109 -14.8926,0 21.3867,-37.01171 -20.8007,-35.88868 14.8925,0 13.2813,23.19336 13.3301,-23.19336 14.8925,0 -20.7031,35.88868 21.2891,37.01171"
       sodipodi:nodetypes="ccccccccccccc"
       inkscape:label="#path3036" />
    <path
       inkscape:connector-curvature="0"
       id="Y1"
       style="font-size:100px;font-style:normal;font-variant:normal;font-weight:bold;font-stretch:normal;line-height:125%;letter-spacing:0px;word-spacing:0px;fill:#000000;fill-opacity:1;stroke:none;font-family:Monospace;-inkscape-font-specification:Sans Bold"
       d="m 1478.4263,208.03323 15.5274,0 14.1601,29.29688 14.209,-29.29688 15.5274,0 -22.5098,44.18946 0,28.71093 -14.4043,0 0,-28.71093 -22.5098,-44.18946"
       sodipodi:nodetypes="cccccccccc"
       inkscape:label="#path3038" />
    <path
       inkscape:connector-curvature="0"
       id="Z1"
       style="font-size:100px;font-style:normal;font-variant:normal;font-weight:bold;font-stretch:normal;line-height:125%;letter-spacing:0px;word-spacing:0px;fill:#000000;fill-opacity:1;stroke:none;font-family:Monospace;-inkscape-font-specification:Sans Bold"
       d="m 1544.8814,208.03323 49.3164,0 0,11.91407 -33.789,48.29101 34.4726,0 0,12.69531 -51.0742,0 0,-11.91406 32.7637,-48.29101 -31.6895,0 0,-12.69532"
       sodipodi:nodetypes="ccccccccccc"
       inkscape:label="#path3040" />
    <path
       style="font-size:100px;font-style:normal;font-variant:normal;font-weight:bold;font-stretch:normal;line-height:125%;letter-spacing:0px;word-spacing:0px;fill:#000000;fill-opacity:1;stroke:none;font-family:Monospace;-inkscape-font-specification:Sans Bold"
       d="M 39.21875 229.40625 L 34.3125 247.625 L 47.78125 247.625 L 51.90625 229.40625 L 39.21875 229.40625 z "
       id="A1"
       inkscape:label="#path2990-5" />
    <path
       style="font-size:100px;font-style:normal;font-variant:normal;font-weight:bold;font-stretch:normal;line-height:125%;letter-spacing:0px;word-spacing:0px;fill:#000000;fill-opacity:1;stroke:none;font-family:Monospace;-inkscape-font-specification:Sans Bold"
       d="M 100.53125 233.5625 L 100.53125 251.75 L 114.46875 251.75 L 114.46875 247.84375 L 120.46875 247.84375 L 120.46875 236.34375 L 114.46875 236.34375 L 114.46875 233.5625 L 100.53125 233.5625 z "
       id="B1"
       inkscape:label="#path2992-5" />
    <path
       style="font-size:100px;font-style:normal;font-variant:normal;font-weight:bold;font-stretch:normal;line-height:125%;letter-spacing:0px;word-spacing:0px;fill:#000000;fill-opacity:1;stroke:none;font-family:Monospace;-inkscape-font-specification:Sans Bold"
       d="M 221.4375 236.6875 L 221.4375 256.4375 L 235.84375 256.4375 L 235.84375 236.6875 L 221.4375 236.6875 z "
       id="D0"
       inkscape:label="#path2996-0" />
    <path
       style="font-size:100px;font-style:normal;font-variant:normal;font-weight:bold;font-stretch:normal;line-height:125%;letter-spacing:0px;word-spacing:0px;fill:#000000;fill-opacity:1;stroke:none;font-family:Monospace;-inkscape-font-specification:Sans Bold"
       d="M 884.1875 230.46875 L 880.96875 244.5625 L 883.78125 256.90625 L 897.625 256.90625 L 895.96875 244.5625 L 897.84375 230.46875 L 884.1875 230.46875 z "
       id="O0"
       inkscape:label="#path3018-7" />
    <path
       style="font-size:100px;font-style:normal;font-variant:normal;font-weight:bold;font-stretch:normal;line-height:125%;letter-spacing:0px;word-spacing:0px;fill:#000000;fill-opacity:1;stroke:none;font-family:Monospace;-inkscape-font-specification:Sans Bold"
       d="M 944.53125 224.96875 L 944.53125 236 L 958.9375 236 L 958.9375 224.96875 L 944.53125 224.96875 z "
       id="P1"
       inkscape:label="#path3020-4" />
    <path
       style="font-size:100px;font-style:normal;font-variant:normal;font-weight:bold;font-stretch:normal;line-height:125%;letter-spacing:0px;word-spacing:0px;fill:#000000;fill-opacity:1;stroke:none;font-family:Monospace;-inkscape-font-specification:Sans Bold"
       d="M 1003.6875 233.9375 L 1001.2812 244.5625 L 1004.1562 257.125 L 1017.9688 257.125 L 1016.2812 244.5625 L 1017.6875 233.9375 L 1003.6875 233.9375 z "
       id="Q1"
       inkscape:label="#path3022-8" />
    <path
       style="font-size:100px;font-style:normal;font-variant:normal;font-weight:bold;font-stretch:normal;line-height:125%;letter-spacing:0px;word-spacing:0px;fill:#000000;fill-opacity:1;stroke:none;font-family:Monospace;-inkscape-font-specification:Sans Bold"
       d="M 1063.4375 223.09375 L 1063.4375 236.1875 L 1077.8438 236.1875 L 1077.8438 223.09375 L 1063.4375 223.09375 z "
       id="R1"
       inkscape:label="#path3024-6" />
  </g>
</svg>
